<svg xmlns="http://www.w3.org/2000/svg" viewBox="0 0 421.12 298.01"><defs><style>.cls-1{fill:#b2b2b2;}.cls-2{fill:#010101;}.cls-3{fill:#706f6f;}.cls-4{fill:#fff;}</style></defs><title>bs_ico_m</title><g id="Ebene_2" data-name="Ebene 2"><g id="Ebene_1-2" data-name="Ebene 1"><polygon class="cls-1" points="258.5 298.01 0 279.62 0 18.39 258.5 0 258.5 298.01"/><g id="elements"><path class="cls-2" d="M12.13,32.74,22,32.12V43.26l-9.83.55ZM22,32.12l9.92-.62V42.69L22,43.26Zm9.92-.62,10-.63V42.12l-10,.57Zm10-.63,10.14-.64V41.54l-10.14.58Zm10.14-.64,10.25-.65V41l-10.25.58Zm10.25-.65,10.36-.65V40.37L62.31,41Zm10.36-.65,10.48-.66v11.5l-10.48.6Zm31.79-2,10.83-.68V37.94l-10.83.62Zm32.86-2.06,11.2-.71V36.05l-11.2.64Zm22.53-1.42,11.46-.72v12l-11.46.66Zm11.46-.72L182.9,22V34.09l-11.59.66ZM182.9,22l11.73-.74V33.43l-11.73.66Zm11.73-.74,11.86-.75V32.75l-11.86.68Zm11.86-.75,12-.75V32.07l-12,.68Zm12-.75L230.64,19V31.38l-12.14.69ZM230.64,19l12.29-.77V30.68l-12.29.7ZM12.13,43.81,22,43.26V54.39l-9.83.5Zm60.54-3.44,10.48-.6v11.5l-10.48.53Zm21.08-1.2,10.71-.61V50.18l-10.71.55Zm32.49-1.85,11.08-.63V48.51l-11.08.57Zm33.61-1.91,11.46-.66v12l-11.46.58Zm70.79-4,12.29-.7V43.13l-12.29.63ZM12.13,54.89l9.83-.5V65.52L12.13,66Zm19.75-1,10-.51V64.62l-10,.45Zm10-.51,10.14-.52V64.17l-10.14.45Zm10.14-.52,10.25-.52V63.7l-10.25.47ZM72.67,51.8l10.48-.53v11.5l-10.48.47Zm31.79-1.62,10.83-.55V61.32l-10.83.49Zm55.39-2.82,11.46-.58v12l-11.46.51Zm23.05-1.17,11.73-.6V57.76l-11.73.53Zm11.73-.6,11.86-.6V57.22l-11.86.54Zm11.86-.6,12-.61V56.69l-12,.53Zm24.15-1.23,12.29-.63V55.59l-12.29.55ZM12.13,66,22,65.52V76.65L12.13,77Zm19.75-.89,10-.45V75.87l-10,.39Zm10-.45,10.14-.45V75.48l-10.14.39Zm10.14-.45,10.25-.47V75.08l-10.25.4Zm20.61-.93,10.48-.47v11.5l-10.48.4Zm21.08-1,10.71-.48V73.44l-10.71.41Zm32.49-1.46,11.08-.5V72.16l-11.08.43Zm33.61-1.51,11.46-.51v12l-11.46.45Zm23.05-1,11.73-.53V69.92l-11.73.46Zm11.73-.53,11.86-.54V69.46l-11.86.46Zm11.86-.54,12-.53V69l-12,.47Zm24.15-1.08,12.29-.55V68l-12.29.48ZM12.13,77,22,76.65V87.78l-9.83.33Zm19.75-.77,10-.39V87.12l-10,.33Zm10-.39,10.14-.39V86.79l-10.14.33Zm10.14-.39,10.25-.4V86.45l-10.25.34Zm20.61-.81,10.48-.4V85.76l-10.48.35ZM115.29,73l10.95-.42V84.34l-10.95.37Zm22-.85,11.2-.44V83.61l-11.2.37Zm22.53-.88,11.46-.45v12l-11.46.38Zm23.05-.9,11.73-.46V82.09l-11.73.39Zm11.73-.46,11.86-.46V81.7l-11.86.39Zm11.86-.46,12-.47V81.3l-12,.4Zm24.15-.94L242.93,68V80.5l-12.29.4ZM12.13,88.11,22,87.78V98.91l-9.83.27Zm60.54-2,10.48-.35v11.5l-10.48.29Zm21.08-.69,10.71-.36V96.69L93.75,97Zm10.71-.36,10.83-.35V96.4l-10.83.29Zm10.83-.35,10.95-.37V96.1l-10.95.3Zm22-.73,11.2-.37V95.5l-11.2.3Zm22.53-.74,11.46-.38v12l-11.46.3Zm70.79-2.34,12.29-.4V93l-12.29.34ZM12.13,99.18,22,98.91V110l-9.83.21ZM22,98.91l9.92-.26v11.19L22,110Zm9.92-.26,10-.28v11.26l-10,.21Zm10-.28,10.14-.27v11.31l-10.14.22Zm10.14-.27,10.25-.28V109.2l-10.25.21Zm10.25-.28,10.36-.27V109l-10.36.22Zm10.36-.27,10.48-.29v11.5L72.67,109ZM93.75,97l10.71-.29v11.62l-10.71.23Zm21.54-.58,10.95-.3v11.76l-10.95.23Zm22-.6,11.2-.3v11.89l-11.2.24Zm22.53-.61,11.46-.3v12l-11.46.24Zm11.46-.3,11.59-.32v12.1l-11.59.24Zm11.59-.32,11.73-.31v12.16l-11.73.25Zm11.73-.31,11.86-.32v12.23l-11.86.25Zm11.86-.32,12-.33v12.31l-12,.25Zm12-.33,12.14-.32v12.38l-12.14.25Zm12.14-.32L242.93,93v12.46l-12.29.26Zm-115.35,14.8,10.95-.23v11.75l-10.95.17Zm22-.46,11.2-.24v11.89l-11.2.17ZM12.13,121.32l9.83-.14v11.13l-9.83.09Zm9.83-.14,9.92-.15v11.19l-9.92.09Zm9.92-.15,10-.15v11.25l-10,.09Zm10-.15,10.14-.15V132l-10.14.09Zm10.14-.15,10.25-.16V132L52.06,132Zm20.61-.31,10.48-.16v11.5l-10.48.09Zm10.48-.16,10.6-.16v11.56l-10.6.1Zm10.6-.16,10.71-.16v11.63l-10.71.09Zm10.71-.16,10.83-.16v11.69l-10.83.1Zm44.06-.66,11.33-.17v12l-11.33.1Zm22.79-.34,11.59-.17v12.09l-11.59.11Zm23.32-.35,11.86-.18v12.24l-11.86.11Zm23.87-.36,12.14-.18v12.38l-12.14.11ZM12.13,132.4l9.83-.09v11.13l-9.83,0Zm9.83-.09,9.92-.09v11.19l-9.92,0ZM62.31,132l10.36-.1v11.44l-10.36,0Zm20.84-.19,10.6-.1v11.56l-10.6,0Zm10.6-.1,10.71-.09v11.62l-10.71,0Zm66.1-.59,11.46-.1v12l-11.46,0Zm11.46-.1,11.59-.11V143l-11.59,0Zm11.59-.11,11.73-.1v12.16l-11.73,0Zm11.73-.1,11.86-.11v12.24l-11.86,0Zm36-.33,12.29-.11v12.46l-12.29,0Zm-198.76,13,10,0v11.25l-10,0Zm30.43-.09,10.36,0v11.43l-10.36,0Zm10.36,0,10.48,0v11.49l-10.48,0Zm21.08-.07,10.71,0v11.63l-10.71,0Zm21.54-.06,10.95,0v11.75l-10.95,0Zm10.95,0,11.08,0v11.83l-11.08,0Zm11.08,0,11.2,0V155l-11.2,0Zm69.17-.2,12,0v12.31l-12,0Zm12,0,12.14,0V155.2l-12.14,0ZM12.13,154.54l9.83,0V165.7l-9.83-.09Zm19.75.06,10,0v11.25l-10-.09Zm10,0,10.14,0V166l-10.14-.09Zm10.14,0,10.25,0v11.38L52.06,166Zm52.4.16,10.83,0v11.69l-10.83-.1Zm10.83,0,10.95,0v11.76l-10.95-.1Zm10.95,0,11.08,0v11.82l-11.08-.1Zm22.28.07,11.33,0v12l-11.33-.1Zm34.38.1,11.73,0v12.16l-11.73-.1Zm11.73,0,11.86,0v12.24l-11.86-.11Zm11.86,0,12,0v12.31l-12-.11Zm24.15.08,12.29,0v12.46l-12.29-.11ZM31.88,165.79l10,.09v11.25l-10-.15Zm40.79.37,10.48.09v11.5l-10.48-.16Zm31.79.28,10.83.1v11.69l-10.83-.16Zm10.83.1,10.95.1V178.4l-10.95-.17Zm22,.2,11.2.1v11.89l-11.2-.17Zm22.53.2,11.46.1v12l-11.46-.17Zm11.46.1,11.59.11v12.1l-11.59-.18ZM93.75,177.91l10.71.16V189.7l-10.71-.23Zm89.15,1.34,11.73.17v12.17l-11.73-.25Zm11.73.17,11.86.18v12.24l-11.86-.25Zm36,.54,12.29.18V192.6l-12.29-.26Zm-218.51,7.8L22,188V199.1l-9.83-.27ZM22,188l9.92.2v11.19L22,199.1Zm9.92.2,10,.21v11.26l-10-.28Zm10,.21,10.14.22v11.31l-10.14-.27Zm10.14.22,10.25.21v11.38l-10.25-.28Zm10.25.21,10.36.22v11.43l-10.36-.27Zm10.36.22,10.48.22v11.5l-10.48-.29Zm21.08.44,10.71.23v11.62L93.75,201Zm21.54.45,10.95.23v11.76l-10.95-.3Zm10.95.23,11.08.24v11.82l-11.08-.3Zm11.08.24,11.2.23v11.89l-11.2-.3Zm11.2.23,11.33.24v12l-11.33-.31Zm46.11,1,11.86.25v12.23l-11.86-.32Zm23.87.5,12.14.25v12.38l-12.14-.32ZM12.13,198.83l9.83.27v11.13l-9.83-.32Zm60.54,1.63,10.48.29v11.5l-10.48-.35Zm75.85,2,11.33.31v12l-11.33-.37Zm46.11,1.24,11.86.32v12.24l-11.86-.39Zm11.86.32,12,.33v12.31l-12-.4Zm24.15.65,12.29.34v12.45l-12.29-.4ZM12.13,209.91l9.83.32v11.13L12.13,221Zm19.75.65,10,.33v11.25l-10-.39Zm10,.33,10.14.33v11.31l-10.14-.39Zm10.14.33,10.25.34v11.37l-10.25-.4Zm20.61.68,10.48.35v11.49l-10.48-.4Zm21.08.69,10.71.36v11.62l-10.71-.41Zm21.54.71,10.95.37v11.75L115.29,225Zm10.95.37,11.08.36v11.82l-11.08-.43Zm22.28.73,11.33.37v12l-11.33-.44Zm11.33.37,11.46.38v12l-11.46-.45Zm23.05.76,11.73.39v12.17l-11.73-.46Zm35.6,1.18,12.14.4v12.38L218.5,229Zm12.14.4,12.29.4V230l-12.29-.48ZM12.13,221l9.83.38v11.13l-9.83-.44Zm19.75.77,10,.39v11.25l-10-.45Zm10,.39,10.14.39v11.31l-10.14-.45Zm10.14.39,10.25.4v11.38l-10.25-.47Zm20.61.81,10.48.4v11.5l-10.48-.47Zm21.08.82,10.71.41V236.2l-10.71-.48Zm10.71.41,10.83.43v11.69l-10.83-.49Zm10.83.43,10.95.42v11.76l-10.95-.49Zm56,2.18,11.59.45v12.1l-11.59-.53Zm11.59.45,11.73.46v12.16l-11.73-.52Zm23.59.92,12,.47v12.3l-12-.53Zm-194.36,3.5,9.83.44v11.13l-9.83-.5Zm19.75.89,10,.45v11.25l-10-.51Zm10,.45,10.14.45v11.32l-10.14-.52Zm10.14.45,10.25.47v11.37l-10.25-.52Zm20.61.93,10.48.47v11.5l-10.48-.53Zm21.08.95,10.71.48v11.63l-10.71-.55Zm43.57,2,11.2.5v11.89l-11.2-.57Zm22.53,1,11.46.51v12l-11.46-.58Zm11.46.51,11.59.53v12.09l-11.59-.59Zm23.32,1.05,11.86.54V253l-11.86-.6Zm-182.5,2.87,9.83.5v11.14l-9.83-.56Zm60.54,3.09,10.48.53v11.5l-10.48-.6Zm21.08,1.07,10.71.55v11.62l-10.71-.61Zm21.54,1.1,10.95.56v11.75l-10.95-.62Zm10.95.56,11.08.56v11.82l-11.08-.63Zm11.08.56,11.2.57V262l-11.2-.64Zm11.2.57,11.33.58v12L148.52,262Zm34.38,1.75,11.73.6v12.16l-11.73-.66Zm11.73.6,11.86.6v12.24l-11.86-.68Zm11.86.6,12,.61v12.31l-12-.68ZM12.13,254.2l9.83.56v11.13l-9.83-.62Zm9.83.56,9.92.56v11.19L22,265.89Zm9.92.56,10,.57v11.25l-10-.63Zm10,.57,10.14.58v11.31l-10.14-.64Zm10.14.58,10.25.58v11.38l-10.25-.65Zm10.25.58,10.36.59v11.44l-10.36-.65Zm10.36.59,10.48.6v11.5l-10.48-.66Zm21.08,1.2,10.71.61v11.63l-10.71-.68Zm10.71.61,10.83.62v11.69l-10.83-.68Zm21.78,1.24,11.08.63v11.83l-11.08-.7Zm11.08.63,11.2.64v11.89l-11.2-.7Zm22.53,1.28,11.46.66v12l-11.46-.72Zm11.46.66,11.59.66V276l-11.59-.73Zm11.59.66,11.73.66v12.17L182.9,276Zm35.6,2,12.14.69V279l-12.14-.77Z"/></g><polygon class="cls-3" points="421.12 237.5 257.86 297.93 257.86 0 421.12 60.43 421.12 237.5"/><path class="cls-4" d="M275.79,265.72V34.27L313,46.89c11.14,3.77,19.27,11,24.84,21.42,5.36,10.07,8,23.34,8,40.11a80,80,0,0,1-2.9,22.61c-2,6.68-4.89,11.73-8.8,15.14,5,2.49,8.65,7.62,11,15.36A90.13,90.13,0,0,1,348.65,188c0,17.42-2.44,31.24-7.46,41.73-5.21,10.89-12.93,18.2-23.57,21.8Zm23.13-133.21,14.79.81c5.15.28,9-1.7,11.62-5.88s3.86-10.26,3.86-18.48c0-9-1.28-15.95-3.89-20.81A17.94,17.94,0,0,0,313,78.75l-14.11-3.3Zm0,29.93v62.1l18.7-4.37c5-1.17,8.66-4.31,11.15-9.38s3.65-11.82,3.65-20.55q0-14.15-3.11-21.42c-2.11-4.94-5.5-7.35-10.26-7.16Z"/><path class="cls-4" d="M394.86,186c0-5.8-.71-10.38-2.16-13.77a24.77,24.77,0,0,0-7.94-9.61,54.29,54.29,0,0,1-16.59-19.74c-4.08-8.21-6.17-19.5-6.17-33.69s2.4-25.15,7.05-32.68c4.48-7.26,10-9.64,16.34-7.42,6.11,2.12,10.85,8.15,14.38,17.92,3.41,9.46,5,20.24,4.92,32.56l-.07.58-9.76-1.37c0-7-.81-12.77-2.46-17.46s-4.06-7.54-7.21-8.31-5.56.55-7.33,4-2.7,8.31-2.7,14.39a30.59,30.59,0,0,0,2.89,14,44.65,44.65,0,0,0,9.48,11.72,44.34,44.34,0,0,1,13.23,18.58c2.79,7.23,4.16,16.67,4.16,28.47,0,12.33-1.63,22.48-5,30.65-3.44,8.43-8.15,13.77-14.3,15.91-6.37,2.22-12.22-.37-17.45-8.12-5.45-8.09-8.18-21.11-8-38.78l.09-.73,13-1.67c0,9.84,1.15,16.83,3.41,20.9s5.23,5.49,9,4.57c3.07-.75,5.35-3,6.91-6.82A37.37,37.37,0,0,0,394.86,186Z"/></g></g></svg>